<?xml version="1.0" encoding="utf-8"?>
<!-- Generator: Adobe Illustrator 15.1.0, SVG Export Plug-In . SVG Version: 6.00 Build 0)  -->
<!DOCTYPE svg PUBLIC "-//W3C//DTD SVG 1.1//EN" "http://www.w3.org/Graphics/SVG/1.1/DTD/svg11.dtd">
<svg version="1.1" id="Calque_1" xmlns="http://www.w3.org/2000/svg" xmlns:xlink="http://www.w3.org/1999/xlink" x="0px" y="0px"
	 width="256px" height="256px" viewBox="0 0 256 256" enable-background="new 0 0 256 256" xml:space="preserve">
<circle fill="#0A6C7C" cx="128" cy="128" r="127"/>
<text transform="matrix(1 0 0 1 -223.9893 166.833)" font-family="'AlexBrush-Regular'" font-size="225.3428">m</text>
<g>
	<path fill="#F2F2F2" d="M202.72,145.258c-12.003,8.703-21.305,13.204-27.908,13.204c-13.502,0-20.403-6.302-20.403-18.905
		c0-1.801,0.299-3.601,0.6-5.401c1.2-6.303,4.501-15.004,10.201-26.107c5.704-11.103,12.003-21.006,18.906-29.707
		c-12.903,6.301-26.707,16.804-41.411,30.908c-17.404,17.104-29.108,34.209-35.409,51.014c-0.901,1.5-2.701,2.401-5.103,2.401
		c-4.801,0-7.201-2.701-7.201-8.104c2.1-11.103,6.602-23.706,13.504-37.81c6.301-13.504,12.903-26.708,19.505-40.212
		c-15.004,9.903-29.709,22.207-43.812,37.21c-8.102,8.703-17.704,20.106-28.507,33.91c-7.804,9.902-12.304,14.704-13.505,14.704
		c-5.701,0-9.603-6.901-9.603-10.504c0-3,2.401-9.603,6.901-20.105c2.701-6.601,5.702-13.203,8.703-19.805l-18.005,18.905
		c-0.9,0.899-6.002,6.601-8.402,6.601c-0.9,0-1.501-0.6-1.501-2.1c0-0.6,0.301-2.101,2.401-4.201
		c6.001-6.001,12.304-12.604,19.205-21.306c5.102-6.602,15.005-20.105,29.408-40.512c2.101-3,5.401-4.501,9.303-4.501
		s6.002,1.801,6.002,5.701c0,1.501-5.103,10.804-15.305,27.908c-10.503,18.306-16.805,30.008-18.305,35.41
		c8.702-9.603,21.006-21.606,36.909-36.31c24.607-22.807,40.812-34.21,48.614-34.21c4.501,0,9.603,3.001,9.603,7.502
		c0,0.9-3.901,8.402-11.703,21.906c-7.802,14.104-12.004,22.506-12.604,24.606c22.206-18.604,33.309-27.907,33.309-28.207
		c18.906-14.705,32.41-21.906,40.512-21.906c4.802,0,9.902,3.601,9.902,7.502c0,0.3-6.303,8.702-19.206,25.207
		c-13.504,16.805-20.706,30.308-22.204,40.812c-0.902,7.201,2.7,10.803,11.101,10.803c9.905,0,29.711-13.504,49.216-36.01
		c2.4-2.701,5.401-6.002,7.501-6.002c1.201,0,1.802,0.6,1.802,1.5c0,1.2-1.201,3.302-2.702,4.802
		C223.426,127.253,214.125,136.556,202.72,145.258z"/>
</g>
<g>
	<circle fill="#F2F2F2" cx="127.5" cy="201.334" r="7.167"/>
	<circle fill="#F2F2F2" cx="152.5" cy="198.334" r="7.167"/>
	<circle fill="#F2F2F2" cx="103.5" cy="198.334" r="7.167"/>
</g>
</svg>
